HIERARCHY
ROOT Hips
{
 OFFSET 0.000000 0.000000 0.000000
 CHANNELS 6 Xposition Yposition Zposition Yrotation Xrotation Zrotation
 JOINT Chest
 {
  OFFSET 0.000000 9.585900 0.002600
  CHANNELS 3 Yrotation Xrotation Zrotation
  JOINT Chest2
  {
   OFFSET 0.000000 9.601200 -0.005300
   CHANNELS 3 Yrotation Xrotation Zrotation
   JOINT Chest3
   {
    OFFSET 0.000000 9.561800 0.000000
    CHANNELS 3 Yrotation Xrotation Zrotation
    JOINT Chest4
    {
     OFFSET 0.000000 9.552100 0.000000
     CHANNELS 3 Yrotation Xrotation Zrotation
     JOINT Neck
     {
      OFFSET 0.000000 14.453000 0.000000
      CHANNELS 3 Yrotation Xrotation Zrotation
      JOINT Head
      {
       OFFSET 0.000000 8.936500 -0.011300
       CHANNELS 3 Yrotation Xrotation Zrotation
       End Site
       {
        OFFSET 0.000000 17.073600 -0.006000
       }
      }
     }
     JOINT RightCollar
     {
      OFFSET -2.921100 9.558500 0.000000
      CHANNELS 3 Yrotation Xrotation Zrotation
      JOINT RightShoulder
      {
       OFFSET -13.519700 0.000000 0.000000
       CHANNELS 3 Yrotation Xrotation Zrotation
       JOINT RightElbow
       {
        OFFSET 0.000000 -29.696600 0.000000
        CHANNELS 3 Yrotation Xrotation Zrotation
        JOINT RightWrist
        {
         OFFSET 0.000000 -24.004700 0.000000
         CHANNELS 3 Yrotation Xrotation Zrotation
         End Site
         {
          OFFSET 0.000000 -17.728500 0.000000
         }
        }
       }
      }
     }
     JOINT LeftCollar
     {
      OFFSET 2.921100 9.558500 0.000000
      CHANNELS 3 Yrotation Xrotation Zrotation
      JOINT LeftShoulder
      {
       OFFSET 13.519700 0.000000 0.000000
       CHANNELS 3 Yrotation Xrotation Zrotation
       JOINT LeftElbow
       {
        OFFSET 0.000000 -29.696600 0.000000
        CHANNELS 3 Yrotation Xrotation Zrotation
        JOINT LeftWrist
        {
         OFFSET 0.000000 -24.004700 0.000000
         CHANNELS 3 Yrotation Xrotation Zrotation
         End Site
         {
          OFFSET 0.000000 -17.728500 0.000000
         }
        }
       }
      }
     }
    }
   }
  }
 }
 JOINT RightHip
 {
  OFFSET -7.771700 -0.012900 -0.001300
  CHANNELS 3 Yrotation Xrotation Zrotation
  JOINT RightKnee
  {
   OFFSET 0.000000 -40.869800 0.001200
   CHANNELS 3 Yrotation Xrotation Zrotation
   JOINT RightAnkle
   {
    OFFSET 0.000000 -39.717900 0.002100
    CHANNELS 3 Yrotation Xrotation Zrotation
    JOINT RightToe
    {
     OFFSET 0.000000 -4.965400 11.033500
     CHANNELS 3 Yrotation Xrotation Zrotation
     End Site
     {
      OFFSET 0.000000 -1.423100 5.872300
     }
    }
   }
  }
 }
 JOINT LeftHip
 {
  OFFSET 7.771700 -0.012900 -0.001300
  CHANNELS 3 Yrotation Xrotation Zrotation
  JOINT LeftKnee
  {
   OFFSET 0.000000 -40.869800 0.001200
   CHANNELS 3 Yrotation Xrotation Zrotation
   JOINT LeftAnkle
   {
    OFFSET 0.000000 -39.717900 0.002100
    CHANNELS 3 Yrotation Xrotation Zrotation
    JOINT LeftToe
    {
     OFFSET 0.000000 -4.965400 11.033500
     CHANNELS 3 Yrotation Xrotation Zrotation
     End Site
     {
      OFFSET 0.000000 -1.423100 5.872300
     }
    }
   }
  }
 }
}
MOTION
Frames: 13
Frame Time: 0.008333
-114.240145 51.810259 -47.182547 177.216640 -18.507128 0.067344 -0.677413 13.012517 -0.194261 -0.051257 1.028568 0.030340 -0.087591 1.760175 0.053491 -0.561711 11.817302 0.298794 -4.418325 16.639732 -1.295210 -4.394513 -8.124977 -0.362917 6.177285 14.433768 12.079255 29.023577 -5.451630 -29.294206 151.870461 -55.707216 174.449216 0.295451 8.241608 -30.796501 -6.294924 13.704963 -15.284083 -25.652712 0.781763 31.830320 -178.279519 -55.446167 -151.568713 17.261682 -0.090796 20.395912 -16.370489 -63.707657 10.178100 -75.296979 80.296033 -83.320120 -4.044511 -9.938871 6.678638 0.226700 -0.694340 0.115488 14.743765 -61.949113 -11.517611 30.049080 84.468181 35.371996 -3.557155 -11.597499 1.783486 0.140521 0.382956 0.059369
-114.242553 51.811030 -47.185347 177.210940 -18.498434 0.069918 -0.674246 13.024187 -0.191125 -0.048910 1.021592 0.029473 -0.090311 1.762688 0.053399 -0.559652 11.804404 0.296954 -4.423048 16.674676 -1.294545 -4.393978 -8.150139 -0.363606 6.178071 14.442922 12.078010 29.022409 -5.453126 -29.291926 151.855769 -55.697993 174.460264 0.293052 8.240088 -30.793006 -6.296816 13.711665 -15.281971 -25.652543 0.784443 31.828920 -178.276700 -55.440487 -151.569232 17.269052 -0.099902 20.397317 -16.366828 -63.716180 10.177365 -75.294144 80.296738 -83.316761 -4.039403 -9.928838 6.668861 0.222023 -0.702742 0.122097 14.757325 -61.955144 -11.528553 30.060324 84.470715 35.386571 -3.558796 -11.601111 1.781556 0.143987 0.381435 0.061617
-114.242544 51.811054 -47.185943 177.185850 -18.476167 0.061853 -0.649028 13.008875 -0.173943 -0.052423 1.036292 0.031879 -0.088819 1.751881 0.050995 -0.557151 11.806848 0.298054 -4.426366 16.679021 -1.296510 -4.393985 -8.154315 -0.363885 6.177574 14.442922 12.074693 29.028117 -5.446352 -29.286953 151.833754 -55.685821 174.475218 0.301875 8.245917 -30.789277 -6.296210 13.708865 -15.276161 -25.658297 0.789472 31.824259 -178.242142 -55.433833 -151.585877 17.272638 -0.095458 20.398586 -16.383724 -63.732253 10.218387 -75.280222 80.300181 -83.302486 -4.002880 -9.966188 6.669577 0.188751 -0.657341 0.105000 14.763615 -61.979399 -11.509711 30.103312 84.471469 35.430522 -3.546708 -11.588229 1.788515 0.126255 0.363747 0.052461
-114.247384 51.812430 -47.190828 177.205658 -18.479322 0.068538 -0.672589 13.022363 -0.185781 -0.051212 1.028440 0.030427 -0.094785 1.758408 0.050551 -0.554333 11.808982 0.298472 -4.426882 16.682999 -1.296186 -4.393299 -8.127405 -0.369499 6.178808 14.438014 12.072908 29.032693 -5.445384 -29.287676 151.788962 -55.696962 174.518437 0.300672 8.244109 -30.790268 -6.296221 13.721845 -15.266197 -25.667308 0.778472 31.822699 -178.212861 -55.426908 -151.598379 17.257802 -0.091209 20.405881 -16.374245 -63.731787 10.185369 -75.295852 80.305081 -83.320733 -4.024701 -9.920864 6.662938 0.209927 -0.697743 0.114183 14.767554 -61.972621 -11.536398 30.109503 84.475615 35.436423 -3.566392 -11.604763 1.783274 0.149672 0.376637 0.064107
-114.249070 51.813258 -47.193970 177.204759 -18.472721 0.061901 -0.678529 13.024251 -0.182285 -0.051323 1.028110 0.030705 -0.092712 1.759519 0.052083 -0.558741 11.805973 0.299641 -4.420466 16.691289 -1.297201 -4.390088 -8.136900 -0.372459 6.186193 14.438406 12.069267 29.036713 -5.448068 -29.290760 151.772738 -55.700626 174.537012 0.311006 8.253111 -30.784977 -6.287266 13.718931 -15.267839 -25.670282 0.780419 31.822016 -178.189348 -55.426791 -151.611808 17.222949 -0.089680 20.419596 -16.389891 -63.734954 10.202836 -75.303295 80.307387 -83.327859 -4.031419 -9.916328 6.666466 0.215879 -0.699290 0.109407 14.762037 -61.980706 -11.530102 30.125428 84.481243 35.453085 -3.561940 -11.606917 1.785373 0.144445 0.374153 0.062838
-114.248933 51.813220 -47.194388 177.182431 -18.450238 0.050594 -0.659023 13.012651 -0.165104 -0.051451 1.028121 0.031108 -0.091308 1.757654 0.052077 -0.564945 11.810664 0.305399 -4.413275 16.684703 -1.302980 -4.386386 -8.124015 -0.374382 6.189379 14.439305 12.062576 29.041088 -5.447847 -29.298103 151.771665 -55.693141 174.537925 0.324667 8.258252 -30.766717 -6.284732 13.717184 -15.272076 -25.675741 0.791125 31.819868 -178.119355 -55.428900 -151.653215 17.248145 -0.093114 20.416093 -16.417429 -63.750698 10.250601 -75.294545 80.315954 -83.318426 -4.003423 -9.957575 6.676183 0.182267 -0.661060 0.093342 14.759185 -62.007276 -11.504407 30.163918 84.483652 35.489915 -3.542653 -11.593362 1.791477 0.124300 0.356214 0.054179
-114.250752 51.813625 -47.196145 177.174612 -18.436704 0.047755 -0.653672 13.007810 -0.159740 -0.051686 1.027889 0.031077 -0.092066 1.757405 0.049647 -0.563992 11.806040 0.308043 -4.411848 16.688384 -1.303221 -4.382381 -8.090134 -0.377046 6.190657 14.449707 12.060071 29.037066 -5.452080 -29.301447 151.766962 -55.692432 174.552122 0.318129 8.250435 -30.756688 -6.290899 13.726362 -15.273002 -25.662392 0.815152 31.806975 -178.065380 -55.400141 -151.692114 17.231149 -0.102956 20.412159 -16.428364 -63.760080 10.269166 -75.270230 80.323489 -83.295099 -4.011052 -9.959801 6.680106 0.180480 -0.653229 0.088069 14.763293 -62.021883 -11.500390 30.230368 84.484655 35.554854 -3.550003 -11.596269 1.791963 0.124696 0.354881 0.055646
-114.252374 51.813761 -47.196982 177.167570 -18.418777 0.044804 -0.649513 12.999389 -0.157706 -0.051897 1.027546 0.031161 -0.091487 1.754169 0.049725 -0.565299 11.806850 0.308891 -4.408704 16.694480 -1.303290 -4.377694 -8.089691 -0.377752 6.193687 14.458458 12.064056 29.028484 -5.444720 -29.303246 151.788036 -55.686074 174.543808 0.323707 8.235762 -30.745572 -6.285150 13.732528 -15.267155 -25.660808 0.815861 31.801527 -177.986972 -55.413704 -151.750275 17.243510 -0.117474 20.389805 -16.439963 -63.773710 10.289646 -75.241296 80.330883 -83.268018 -4.016043 -9.963706 6.685352 0.180116 -0.645800 0.083821 14.771091 -62.041073 -11.498733 30.255534 84.486614 35.578491 -3.558629 -11.596125 1.793287 0.127267 0.353235 0.057293
-114.253846 51.814002 -47.198076 177.156828 -18.403874 0.044075 -0.647754 13.005705 -0.160429 -0.051662 1.026516 0.031332 -0.083557 1.735876 0.053522 -0.571851 11.818509 0.307928 -4.401511 16.691601 -1.304361 -4.376074 -8.095910 -0.375574 6.193730 14.462209 12.069990 29.034320 -5.441497 -29.310964 151.795718 -55.674322 174.537386 0.313464 8.244071 -30.734845 -6.279086 13.736822 -15.259319 -25.661416 0.801716 31.800968 -177.966550 -55.417620 -151.764482 17.202585 -0.128957 20.356576 -16.445044 -63.785623 10.306970 -75.219138 80.335703 -83.249095 -4.013834 -9.965784 6.688897 0.181337 -0.644546 0.081650 14.785714 -62.056467 -11.497537 30.257897 84.490880 35.578953 -3.568388 -11.599106 1.796370 0.128388 0.352923 0.058970
-114.255375 51.814302 -47.199387 177.150882 -18.391576 0.044048 -0.648032 13.005424 -0.161318 -0.051513 1.026147 0.031472 -0.080067 1.735144 0.054822 -0.573141 11.816934 0.308701 -4.396358 16.693014 -1.304532 -4.373435 -8.093732 -0.378528 6.191188 14.467707 12.077261 29.036981 -5.431465 -29.316373 151.804520 -55.657251 174.529313 0.310961 8.249658 -30.734010 -6.278440 13.742115 -15.255841 -25.653569 0.799726 31.797679 -177.955178 -55.404194 -151.775732 17.185138 -0.138557 20.354098 -16.444490 -63.795003 10.314147 -75.200044 80.335056 -83.230732 -4.010163 -9.969316 6.689979 0.178177 -0.641706 0.082205 14.802102 -62.068769 -11.505032 30.244738 84.494883 35.567824 -3.573232 -11.596488 1.799189 0.132240 0.350537 0.059032
-114.255712 51.814644 -47.200944 177.149042 -18.382234 0.037136 -0.648862 13.006871 -0.154187 -0.051665 1.023600 0.030793 -0.083913 1.738712 0.052381 -0.566905 11.814534 0.312943 -4.396797 16.705876 -1.304676 -4.369241 -8.096191 -0.378470 6.179651 14.480768 12.086413 29.051733 -5.431409 -29.331203 151.826117 -55.652171 174.513555 0.314534 8.254455 -30.731805 -6.275564 13.751668 -15.259628 -25.634327 0.809527 31.801634 -177.930201 -55.381592 -151.801423 17.190878 -0.151362 20.355200 -16.451567 -63.799448 10.330316 -75.188131 80.328311 -83.216256 -4.012812 -9.966028 6.688722 0.182985 -0.643896 0.085274 14.802039 -62.079461 -11.499958 30.230631 84.498570 35.557490 -3.572905 -11.597963 1.798891 0.133408 0.350808 0.059541
-114.256661 51.814612 -47.201692 177.146950 -18.368415 0.034562 -0.646802 13.000401 -0.149143 -0.052113 1.018817 0.029249 -0.086978 1.746082 0.053261 -0.563264 11.811390 0.313378 -4.396465 16.706470 -1.305878 -4.369085 -8.096649 -0.377618 6.178193 14.488734 12.089258 29.053570 -5.429990 -29.329627 151.836781 -55.644755 174.509057 0.313307 8.260842 -30.731170 -6.275357 13.761653 -15.262182 -25.631300 0.806296 31.809986 -177.923866 -55.376398 -151.806734 17.192772 -0.166860 20.368554 -16.460800 -63.809552 10.345129 -75.170801 80.321851 -83.199663 -4.009878 -9.961892 6.686676 0.183212 -0.644857 0.087677 14.808804 -62.094467 -11.504409 30.243234 84.501504 35.570709 -3.569119 -11.598017 1.799900 0.130405 0.349273 0.059076
-114.257925 51.814368 -47.202186 177.141432 -18.353495 0.034973 -0.640990 12.987869 -0.146760 -0.051425 1.025945 0.031538 -0.087136 1.745838 0.053054 -0.564540 11.804321 0.310955 -4.396456 16.706493 -1.306367 -4.367602 -8.089783 -0.381404 6.177043 14.502026 12.093122 29.056933 -5.429628 -29.326350 151.846377 -55.641268 174.509820 0.316235 8.260114 -30.737968 -6.275345 13.772525 -15.259678 -25.627755 0.801417 31.814366 -177.922607 -55.371059 -151.805540 17.196177 -0.173660 20.374981 -16.457285 -63.822575 10.353851 -75.148082 80.297595 -83.178963 -3.993857 -9.945541 6.687430 0.184427 -0.653042 0.091444 14.820124 -62.109754 -11.512122 30.259502 84.502755 35.588315 -3.567064 -11.596931 1.798582 0.129251 0.347550 0.059382
